<svg height="496pt" viewBox="-16 0 496 496.54" width="496pt" xmlns="http://www.w3.org/2000/svg"><path d="m457.269531 369.308594v120.230468h-37.167969v-40.117187h-47.679687v40.117187h-35.152344v-120.230468zm0 0" fill="#00acea"/><path d="m396.789062 345.140625h44.121094v24.167969h-87.28125v-24.167969zm0 0" fill="#00efd1"/><path d="m372.421875 449.421875h47.679687v40.117187h-47.679687zm0 0" fill="#00efd1"/><path d="m232.269531 7c60.75 0 110 49.128906 110 109.738281 0 60.613281-49.25 109.730469-110 109.730469s-110-49.128906-110-109.730469c0-60.597656 49.25-109.738281 110-109.738281zm0 0" fill="#fedb41"/><path d="m292.269531 369.308594v120.230468h-37.167969v-40.117187h-47.679687v40.117187h-35.152344v-120.230468zm0 0" fill="#00efd1"/><path d="m188.628906 345.140625h87.28125v24.167969h-87.28125zm0 0" fill="#00acea"/><path d="m207.421875 449.421875h47.679687v40.117187h-47.679687zm0 0" fill="#00acea"/><path d="m127.269531 369.308594v120.230468h-37.167969v-40.117187h-47.679687v40.117187h-35.152344v-120.230468zm0 0" fill="#00acea"/><path d="m73.449219 345.140625h37.460937v24.167969h-87.28125v-24.167969zm0 0" fill="#00efd1"/><path d="m42.421875 449.421875h47.679687v40.117187h-47.679687zm0 0" fill="#00efd1"/><g fill="#083863"><path d="m39.910156 386.878906h-14.460937c-3.863281 0-7 3.136719-7 7 0 3.867188 3.136719 7 7 7h14.460937c3.867188 0 7-3.132812 7-7 0-3.863281-3.132812-7-7-7zm0 0"/><path d="m104.800781 386.878906h-14.460937c-3.867188 0-7 3.136719-7 7 0 3.867188 3.132812 7 7 7h14.460937c3.863281 0 7-3.132812 7-7 0-3.863281-3.136719-7-7-7zm0 0"/><path d="m74.5 386.878906h-18.75c-3.867188 0-7 3.136719-7 7 0 3.867188 3.132812 7 7 7h18.75c3.867188 0 7-3.132812 7-7 0-3.863281-3.132812-7-7-7zm0 0"/><path d="m39.910156 413h-14.460937c-3.863281 0-7 3.132812-7 7s3.136719 7 7 7h14.460937c3.867188 0 7-3.132812 7-7s-3.132812-7-7-7zm0 0"/><path d="m104.800781 413h-14.460937c-3.867188 0-7 3.132812-7 7s3.132812 7 7 7h14.460937c3.863281 0 7-3.132812 7-7s-3.136719-7-7-7zm0 0"/><path d="m74.5 413h-18.75c-3.867188 0-7 3.132812-7 7s3.132812 7 7 7h18.75c3.867188 0 7-3.132812 7-7s-3.132812-7-7-7zm0 0"/><path d="m204.910156 386.878906h-14.460937c-3.863281 0-7 3.136719-7 7 0 3.867188 3.136719 7 7 7h14.460937c3.867188 0 7-3.132812 7-7 0-3.863281-3.132812-7-7-7zm0 0"/><path d="m269.800781 386.878906h-14.460937c-3.867188 0-7 3.136719-7 7 0 3.867188 3.132812 7 7 7h14.460937c3.863281 0 7-3.132812 7-7 0-3.863281-3.136719-7-7-7zm0 0"/><path d="m239.5 386.878906h-18.75c-3.867188 0-7 3.136719-7 7 0 3.867188 3.132812 7 7 7h18.75c3.867188 0 7-3.132812 7-7 0-3.863281-3.132812-7-7-7zm0 0"/><path d="m204.910156 413h-14.460937c-3.863281 0-7 3.132812-7 7s3.136719 7 7 7h14.460937c3.867188 0 7-3.132812 7-7s-3.132812-7-7-7zm0 0"/><path d="m269.800781 413h-14.460937c-3.867188 0-7 3.132812-7 7s3.132812 7 7 7h14.460937c3.863281 0 7-3.132812 7-7s-3.136719-7-7-7zm0 0"/><path d="m239.5 413h-18.75c-3.867188 0-7 3.132812-7 7s3.132812 7 7 7h18.75c3.867188 0 7-3.132812 7-7s-3.132812-7-7-7zm0 0"/><path d="m457.269531 362.308594h-9.359375v-17.167969c0-3.867187-3.132812-7-7-7h-37.121094v-26.480469c0-3.867187-3.132812-7-7-7h-158.578124v-35.980468l18.148437 18.148437c2.734375 2.734375 7.167969 2.734375 9.902344 0 2.730469-2.734375 2.730469-7.164063 0-9.898437l-30-30c-2.734375-2.734376-7.167969-2.734376-9.902344 0l-30 30c-2.734375 2.734374-2.734375 7.164062 0 9.898437s7.167969 2.734375 9.902344 0l17.949219-17.949219v35.78125h-150.761719c-3.863281 0-7 3.132813-7 7v26.480469h-42.820313c-3.863281 0-7 3.132813-7 7v17.167969h-9.359375c-3.867187 0-7 3.136718-7 7v120.230468c0 3.867188 3.132813 7 7 7h120c3.867188 0 7-3.132812 7-7v-120.230468c0-3.863282-3.132812-7-7-7h-9.359375v-17.167969c0-3.867187-3.132812-7-7-7h-30.460937v-19.480469h143.761719v19.480469h-35.582032c-3.863281 0-7 3.132813-7 7v17.167969h-9.359375c-3.867187 0-7 3.136718-7 7v120.230468c0 3.867188 3.132813 7 7 7h120c3.867188 0 7-3.132812 7-7v-120.230468c0-3.863282-3.132812-7-7-7h-9.359375v-17.167969c0-3.867187-3.132812-7-7-7h-37.699218v-19.480469h151.578124v19.480469h-36.160156c-3.863281 0-7 3.132813-7 7v17.167969h-9.359375c-3.867187 0-7 3.136718-7 7v120.230468c0 3.867188 3.132813 7 7 7h120c3.867188 0 7-3.132812 7-7v-120.230468c0-3.863282-3.132812-7-7-7zm-374.167969 120.230468h-33.679687v-26.117187h33.679687zm37.167969 0h-23.167969v-33.117187c0-3.867187-3.136718-7-7-7h-47.679687c-3.867187 0-7 3.132813-7 7v33.117187h-21.152344v-106.230468h106zm-16.359375-120.230468h-73.28125v-10.167969h73.28125zm144.191406 120.230468h-33.679687v-26.117187h33.679687zm37.167969 0h-23.167969v-33.117187c0-3.867187-3.136718-7-7-7h-47.679687c-3.867187 0-7 3.132813-7 7v33.117187h-21.152344v-106.230468h106zm-16.359375-120.230468h-73.28125v-10.167969h73.28125zm91.71875-10.167969h73.28125v10.167969h-73.28125zm52.472656 130.398437h-33.679687v-26.117187h33.679687zm37.167969 0h-23.167969v-33.117187c0-3.867187-3.136718-7-7-7h-47.679687c-3.867187 0-7 3.132813-7 7v33.117187h-21.152344v-106.230468h106zm0 0"/><path d="m369.910156 386.878906h-14.460937c-3.863281 0-7 3.136719-7 7 0 3.867188 3.136719 7 7 7h14.460937c3.867188 0 7-3.132812 7-7 0-3.863281-3.132812-7-7-7zm0 0"/><path d="m434.800781 386.878906h-14.460937c-3.867188 0-7 3.136719-7 7 0 3.867188 3.132812 7 7 7h14.460937c3.863281 0 7-3.132812 7-7 0-3.863281-3.136719-7-7-7zm0 0"/><path d="m404.5 386.878906h-18.75c-3.867188 0-7 3.136719-7 7 0 3.867188 3.132812 7 7 7h18.75c3.867188 0 7-3.132812 7-7 0-3.863281-3.132812-7-7-7zm0 0"/><path d="m369.910156 413h-14.460937c-3.863281 0-7 3.132812-7 7s3.136719 7 7 7h14.460937c3.867188 0 7-3.132812 7-7s-3.132812-7-7-7zm0 0"/><path d="m434.800781 413h-14.460937c-3.867188 0-7 3.132812-7 7s3.132812 7 7 7h14.460937c3.863281 0 7-3.132812 7-7s-3.136719-7-7-7zm0 0"/><path d="m404.5 413h-18.75c-3.867188 0-7 3.132812-7 7s3.132812 7 7 7h18.75c3.867188 0 7-3.132812 7-7s-3.132812-7-7-7zm0 0"/><path d="m232.269531 233.46875c64.515625 0 117-52.363281 117-116.730469 0-64.363281-52.484375-116.738281-117-116.738281-64.511719 0-117 52.371094-117 116.738281 0 64.371094 52.488281 116.730469 117 116.730469zm0-219.46875c56.792969 0 103 46.089844 103 102.738281 0 56.652344-46.207031 102.730469-103 102.730469s-103-46.082031-103-102.730469c0-56.644531 46.207031-102.738281 103-102.738281zm0 0"/><path d="m232.398438 171.957031c-.042969 0-.085938-.007812-.128907-.007812s-.085937.007812-.128906.007812c-13.453125-.085937-24.320313-11.007812-24.339844-24.464843 0-3.867188-3.136719-7-7-7-3.867187 0-7 3.132812-7 7 .023438 18.535156 13.246094 34.425781 31.46875 37.820312v12.371094c0 3.863281 3.132813 7 7 7 3.867188 0 7-3.136719 7-7v-12.371094c19.550781-3.617188 33.125-21.539062 31.308594-41.339844-1.816406-19.800781-18.425781-34.953125-38.308594-34.949218-13.515625 0-24.472656-10.957032-24.472656-24.472657s10.957031-24.46875 24.472656-24.472656c13.511719 0 24.46875 10.957031 24.46875 24.472656 0 3.863281 3.136719 7 7 7 3.867188 0 7-3.136719 7-7-.023437-18.535156-13.246093-34.425781-31.46875-37.820312v-10.941407c0-3.863281-3.132812-7-7-7-3.867187 0-7 3.136719-7 7v10.941407c-19.550781 3.617187-33.121093 21.539062-31.304687 41.339843 1.816406 19.796876 18.421875 34.949219 38.304687 34.949219 13.457031.042969 24.355469 10.945313 24.390625 24.40625.035156 13.457031-10.804687 24.417969-24.261718 24.53125zm0 0"/></g></svg>