<svg id="Layer_1" enable-background="new 0 0 510 510" height="512" viewBox="0 0 510 510" width="512" xmlns="http://www.w3.org/2000/svg"><g><g><path d="m0 75v105l10 30-10 30v195h255l10-180-10-180c-7.193 0-247.807 0-255 0z" fill="#c6ea4b"/><path d="m510 75c-7.193 0-247.807 0-255 0v360h255c0-6.799 0-188.205 0-195l-10-30 10-30z" fill="#00dc7b"/><path d="m0 180v60h255l10-30-10-30c-7.193 0-247.807 0-255 0z" fill="#3b6bab"/><path d="m510 180c-7.193 0-247.807 0-255 0v60h255c0-7.259 0-52.693 0-60z" fill="#00467d"/><path d="m60 285v30h195l10-15-10-15c-10.822 0-184.178 0-195 0z" fill="#edf5ff"/><g><g><path d="m60 345h150v30h-150z" fill="#edf5ff"/></g></g><g><g><circle cx="435" cy="330" fill="#fdd034" r="21.213"/></g></g></g><path d="m255 285h14.836v30.32h-14.836z" fill="#b5dbff"/></g></svg>